<svg width="22" height="18" viewBox="0 0 22 18" fill="none" xmlns="http://www.w3.org/2000/svg">
<path d="M20.1608 0.500655L20.1606 0.50066C19.807 0.512371 19.4836 0.676008 19.2539 0.937274L13.1448 7.72803L7.4053 14.1079L2.75057 8.9338C2.63458 8.80064 2.49322 8.69099 2.33293 8.61398C2.17073 8.53605 1.99383 8.49387 1.81308 8.49182C1.63233 8.48978 1.45449 8.52795 1.29055 8.60235C1.12682 8.67666 0.981806 8.78483 0.862391 8.91757C0.743074 9.0502 0.651255 9.20511 0.589952 9.37202C0.528659 9.5389 0.498436 9.71616 0.500062 9.89384C0.501689 10.0715 0.535152 10.2482 0.599583 10.4139C0.663343 10.5779 0.756834 10.7295 0.876986 10.8589L6.46852 17.0743L6.46859 17.0744C6.70716 17.3395 7.04271 17.5 7.4053 17.5C7.76789 17.5 8.10345 17.3395 8.34202 17.0744L8.34209 17.0743L21.1274 2.86231C21.3093 2.6647 21.4282 2.41711 21.476 2.15419C21.5241 1.89003 21.4997 1.61539 21.4041 1.3643C21.3084 1.11304 21.1434 0.891067 20.9227 0.733633C20.7011 0.575559 20.4353 0.491655 20.1608 0.500655Z" fill="#2B590E" stroke="#2B590E"/>
</svg>
