<svg width="6" height="21" viewBox="0 0 6 21" fill="none" xmlns="http://www.w3.org/2000/svg">
<path d="M4.97754 0.829999L4.54554 13.871H1.35954L0.900539 0.829999H4.97754ZM3.03354 20.189C2.34954 20.189 1.78254 19.982 1.33254 19.568C0.900539 19.136 0.684539 18.605 0.684539 17.975C0.684539 17.345 0.900539 16.823 1.33254 16.409C1.78254 15.977 2.34954 15.761 3.03354 15.761C3.69954 15.761 4.24854 15.977 4.68054 16.409C5.11254 16.823 5.32854 17.345 5.32854 17.975C5.32854 18.605 5.11254 19.136 4.68054 19.568C4.24854 19.982 3.69954 20.189 3.03354 20.189Z" fill="white"/>
</svg>
