<svg width="43" height="34" viewBox="0 0 43 34" fill="none" xmlns="http://www.w3.org/2000/svg">
<path d="M8.95833 9.91667H12.5417H34.0417C36.0125 9.91667 37.625 8.64167 37.625 7.08333C37.625 5.525 36.0125 4.25 34.0417 4.25H12.5417H8.95833C6.9875 4.25 5.375 5.525 5.375 7.08333C5.375 8.64167 6.9875 9.91667 8.95833 9.91667Z" fill="#B5C5C3"/>
<path d="M34.0417 14.1666H28.6667H8.95833C6.9875 14.1666 5.375 15.4416 5.375 17C5.375 18.5583 6.9875 19.8333 8.95833 19.8333H28.6667H34.0417C36.0125 19.8333 37.625 18.5583 37.625 17C37.625 15.4416 36.0125 14.1666 34.0417 14.1666Z" fill="#B5C5C3"/>
<path d="M34.0417 24.0834H23.2917H8.95833C6.9875 24.0834 5.375 25.3584 5.375 26.9167C5.375 28.475 6.9875 29.75 8.95833 29.75H23.2917H34.0417C36.0125 29.75 37.625 28.475 37.625 26.9167C37.625 25.3584 36.0125 24.0834 34.0417 24.0834Z" fill="#B5C5C3"/>
</svg>
